<svg data-v-423bf9ae="" xmlns="http://www.w3.org/2000/svg" viewBox="0 0 315.3218884120172 60" class="font"><!----><!----><!----><g data-v-423bf9ae="" id="44f8646d-a170-4f69-be95-0d99175550f2" fill="black" transform="matrix(5.4935622215271,0,0,5.4935622215271,-1.8669469356536865,-16.9742488861084)"><path d="M2.93 8.79L2.93 8.79L2.97 6.41L2.97 6.41Q2.97 4.13 1.93 4.13L1.93 4.13L1.93 4.13Q1.64 4.13 1.46 4.30L1.46 4.30L1.46 4.30Q1.29 4.48 1.30 4.68L1.30 4.68L1.30 4.68Q1.32 4.87 1.43 5.00L1.43 5.00L1.43 5.00Q1.51 5.05 1.72 5.14L1.72 5.14L1.72 5.14Q2.17 5.32 2.17 5.64L2.17 5.64L2.17 5.64Q2.17 6.13 1.64 6.13L1.64 6.13L1.64 6.13Q1.11 6.13 0.72 5.71L0.72 5.71L0.72 5.71Q0.34 5.28 0.34 4.67L0.34 4.67L0.34 4.67Q0.34 4.06 0.76 3.58L0.76 3.58L0.76 3.58Q1.18 3.09 1.86 3.09L1.86 3.09L1.86 3.09Q3.21 3.09 3.65 4.03L3.65 4.03L3.65 4.03Q4.05 4.80 4.05 6.30L4.05 6.30L3.99 8.74L3.99 8.74Q3.99 10.70 4.33 11.83L4.33 11.83L4.33 11.83Q4.68 12.96 5.26 12.96L5.26 12.96L5.26 12.96Q5.95 12.96 6.52 11.79L6.52 11.79L6.52 11.79Q7.10 10.63 7.10 9.28L7.10 9.28L7.07 6.16L7.07 6.16Q7.07 5.24 7.67 5.24L7.67 5.24L7.67 5.24Q8.40 5.24 8.40 6.40L8.40 6.40L8.40 6.40Q8.40 6.76 8.12 9.37L8.12 9.37L8.12 9.37Q8.13 10.65 8.71 11.78L8.71 11.78L8.71 11.78Q9.28 12.91 9.95 12.91L9.95 12.91L9.95 12.91Q10.57 12.91 10.92 11.79L10.92 11.79L10.92 11.79Q11.27 10.67 11.27 8.69L11.27 8.69L11.21 6.30L11.21 6.30Q11.21 4.83 11.56 4.03L11.56 4.03L11.56 4.03Q11.96 3.09 13.23 3.09L13.23 3.09L13.23 3.09Q13.75 3.09 14.15 3.43L14.15 3.43L14.15 3.43Q14.55 3.77 14.55 4.10L14.55 4.10L14.55 4.10Q14.55 4.44 14.24 4.44L14.24 4.44L14.24 4.44Q14.14 4.44 13.85 4.28L13.85 4.28L13.85 4.28Q13.55 4.13 13.33 4.13L13.33 4.13L13.33 4.13Q12.29 4.13 12.29 6.41L12.29 6.41L12.33 8.75L12.33 8.75Q12.33 11.26 11.72 12.60L11.72 12.60L11.72 12.60Q11.12 13.94 9.91 13.94L9.91 13.94L9.91 13.94Q9.14 13.94 8.55 13.25L8.55 13.25L8.55 13.25Q7.97 12.56 7.62 11.34L7.62 11.34L7.62 11.34Q7.28 12.59 6.69 13.30L6.69 13.30L6.69 13.30Q6.09 14.01 5.31 14.01L5.31 14.01L5.31 14.01Q4.12 14.01 3.52 12.67L3.52 12.67L3.52 12.67Q2.93 11.33 2.93 8.79ZM18.76 7.50L18.76 7.50L18.76 7.50Q17.84 7.50 17.21 8.20L17.21 8.20L17.21 8.20Q16.59 8.89 16.39 9.81L16.39 9.81L16.39 9.81Q17.15 10.04 18.09 10.04L18.09 10.04L18.09 10.04Q19.04 10.04 19.61 9.72L19.61 9.72L19.61 9.72Q20.19 9.39 20.19 8.83L20.19 8.83L20.19 8.83Q20.19 8.27 19.80 7.89L19.80 7.89L19.80 7.89Q19.42 7.50 18.76 7.50ZM18.16 10.92L18.16 10.92L18.16 10.92Q17.43 10.92 16.38 10.71L16.38 10.71L16.38 10.71Q16.46 11.70 17.11 12.40L17.11 12.40L17.11 12.40Q17.77 13.10 18.63 13.10L18.63 13.10L18.63 13.10Q19.50 13.10 20.06 12.68L20.06 12.68L20.06 12.68Q20.62 12.25 20.80 12.25L20.80 12.25L20.80 12.25Q20.97 12.25 21.08 12.36L21.08 12.36L21.08 12.36Q21.18 12.46 21.18 12.61L21.18 12.61L21.18 12.61Q21.18 13.01 20.38 13.51L20.38 13.51L20.38 13.51Q19.57 14.01 18.63 14.01L18.63 14.01L18.63 14.01Q17.18 14.01 16.32 12.98L16.32 12.98L16.32 12.98Q15.46 11.96 15.40 10.53L15.40 10.53L15.40 10.53Q14.66 10.29 14.66 9.80L14.66 9.80L14.66 9.80Q14.66 9.48 14.90 9.38L14.90 9.38L14.90 9.38Q14.98 9.35 15.11 9.35L15.11 9.35L15.11 9.35Q15.25 9.35 15.48 9.48L15.48 9.48L15.48 9.48Q15.81 8.20 16.65 7.40L16.65 7.40L16.65 7.40Q17.50 6.59 18.64 6.59L18.64 6.59L18.64 6.59Q19.78 6.59 20.48 7.22L20.48 7.22L20.48 7.22Q21.18 7.85 21.18 8.87L21.18 8.87L21.18 8.87Q21.18 9.88 20.31 10.40L20.31 10.40L20.31 10.40Q19.45 10.92 18.16 10.92ZM25.59 7.69L25.59 7.69L24.43 7.66L24.40 10.98L24.40 10.98Q24.40 12.26 24.50 12.65L24.50 12.65L24.50 12.65Q24.60 13.03 25.06 13.03L25.06 13.03L25.06 13.03Q25.28 13.03 25.59 12.89L25.59 12.89L25.59 12.89Q25.90 12.74 25.97 12.74L25.97 12.74L25.97 12.74Q26.26 12.74 26.26 13.03L26.26 13.03L26.26 13.03Q26.26 13.33 25.75 13.64L25.75 13.64L25.75 13.64Q25.23 13.94 24.72 13.94L24.72 13.94L24.72 13.94Q23.51 13.94 23.51 12.15L23.51 12.15L23.49 7.66L23.49 7.66Q23.03 7.70 22.85 7.70L22.85 7.70L22.85 7.70Q22.15 7.70 22.15 7.24L22.15 7.24L22.15 7.24Q22.15 6.78 22.85 6.78L22.85 6.78L23.46 6.80L23.44 5.24L23.44 5.24Q23.44 4.54 23.97 4.54L23.97 4.54L23.97 4.54Q24.50 4.54 24.50 5.24L24.50 5.24L24.46 6.82L25.59 6.76L25.59 6.76Q26.29 6.76 26.29 7.24L26.29 7.24L26.29 7.24Q26.29 7.69 25.59 7.69ZM29.79 12.68L29.79 12.68L29.79 12.68Q29.93 12.68 30.70 10.04L30.70 10.04L30.70 10.04Q31.47 7.41 31.57 7.17L31.57 7.17L31.57 7.17Q31.77 6.66 32.19 6.66L32.19 6.66L32.19 6.66Q32.62 6.66 32.79 7.15L32.79 7.15L33.60 10.05L33.60 10.05Q34.38 12.68 34.50 12.68L34.50 12.68L34.50 12.68Q34.65 12.68 35.42 10.07L35.42 10.07L35.42 10.07Q35.60 9.46 35.88 8.43L35.88 8.43L36.22 7.21L36.22 7.21Q36.39 6.66 36.74 6.66L36.74 6.66L36.74 6.66Q36.95 6.66 37.09 6.79L37.09 6.79L37.09 6.79Q37.24 6.92 37.24 7.13L37.24 7.13L37.24 7.13Q37.24 7.34 36.99 8.12L36.99 8.12L36.99 8.12Q36.74 8.90 36.63 9.20L36.63 9.20L36.63 9.20Q36.53 9.49 35.99 11.17L35.99 11.17L35.99 11.17Q35.45 12.85 35.23 13.40L35.23 13.40L35.23 13.40Q35.01 13.94 34.45 13.94L34.45 13.94L34.45 13.94Q33.89 13.94 33.64 13.22L33.64 13.22L33.64 13.22Q33.14 11.76 32.68 10.14L32.68 10.14L32.68 10.14Q32.21 8.53 32.11 8.53L32.11 8.53L32.11 8.53Q32.00 8.53 31.84 9.09L31.84 9.09L31.47 10.37L31.47 10.37Q30.74 12.94 30.46 13.45L30.46 13.45L30.46 13.45Q30.23 13.94 29.69 13.94L29.69 13.94L29.69 13.94Q29.16 13.94 28.90 13.17L28.90 13.17L28.90 13.17Q28.87 13.09 28.81 12.94L28.81 12.94L28.81 12.94Q28.76 12.78 28.66 12.50L28.66 12.50L28.66 12.50Q28.57 12.22 28.48 11.94L28.48 11.94L28.48 11.94Q28.39 11.66 28 10.49L28 10.49L27.62 9.38L27.62 9.38Q27.50 9.00 27.34 8.57L27.34 8.57L27.34 8.57Q26.94 7.46 26.94 7.20L26.94 7.20L26.94 7.20Q26.94 6.94 27.08 6.80L27.08 6.80L27.08 6.80Q27.23 6.66 27.44 6.66L27.44 6.66L27.44 6.66Q27.85 6.66 28 7.15L28 7.15L28 7.15Q28.01 7.17 28.36 8.39L28.36 8.39L28.81 9.87L28.81 9.87Q28.87 10.02 28.97 10.32L28.97 10.32L28.97 10.32Q29.30 11.42 29.51 12.05L29.51 12.05L29.51 12.05Q29.72 12.68 29.79 12.68ZM44.13 10.42L44.13 10.42L44.13 10.42Q44.13 11.44 44.27 12.12L44.27 12.12L44.27 12.12Q44.42 12.80 44.65 12.88L44.65 12.88L44.65 12.88Q44.73 12.92 44.85 12.94L44.85 12.94L44.85 12.94Q44.97 12.95 45.02 12.98L45.02 12.98L45.02 12.98Q45.07 13.01 45.07 13.09L45.07 13.09L45.07 13.09Q45.07 13.48 44.86 13.71L44.86 13.71L44.86 13.71Q44.65 13.94 44.25 13.94L44.25 13.94L44.25 13.94Q43.85 13.94 43.62 13.43L43.62 13.43L43.62 13.43Q43.40 12.92 43.40 12.10L43.40 12.10L43.40 12.10Q43.02 12.91 42.35 13.43L42.35 13.43L42.35 13.43Q41.68 13.94 40.83 13.94L40.83 13.94L40.83 13.94Q39.98 13.94 39.38 13.38L39.38 13.38L39.38 13.38Q38.26 12.35 38.26 10.46L38.26 10.46L38.26 10.46Q38.26 8.93 39.14 7.80L39.14 7.80L39.14 7.80Q40.03 6.66 41.41 6.66L41.41 6.66L41.41 6.66Q42.46 6.66 43.23 7.38L43.23 7.38L43.23 7.38Q43.23 6.66 43.76 6.66L43.76 6.66L43.76 6.66Q44.41 6.66 44.41 7.62L44.41 7.62L44.41 7.62Q44.41 8.58 44.13 10.42ZM43.32 10.54L43.32 10.54L43.25 8.39L43.25 8.39Q42.42 7.57 41.50 7.57L41.50 7.57L41.50 7.57Q40.57 7.57 39.91 8.40L39.91 8.40L39.91 8.40Q39.26 9.23 39.26 10.39L39.26 10.39L39.26 10.39Q39.26 11.56 39.69 12.30L39.69 12.30L39.69 12.30Q40.12 13.03 40.89 13.03L40.89 13.03L40.89 13.03Q41.66 13.03 42.31 12.35L42.31 12.35L42.31 12.35Q42.97 11.66 43.32 10.54ZM47.67 10.60L47.67 10.60L47.71 13.23L47.71 13.23Q47.71 13.94 47.18 13.94L47.18 13.94L47.18 13.94Q46.54 13.94 46.54 12.98L46.54 12.98L46.54 12.98Q46.54 12.03 46.82 10.19L46.82 10.19L46.82 10.19Q46.82 9.60 46.70 8.55L46.70 8.55L46.70 8.55Q46.58 7.49 46.58 7.27L46.58 7.27L46.58 7.27Q46.58 7.04 46.73 6.85L46.73 6.85L46.73 6.85Q46.89 6.66 47.12 6.66L47.12 6.66L47.12 6.66Q47.36 6.66 47.52 6.85L47.52 6.85L47.52 6.85Q47.67 7.04 47.67 7.24L47.67 7.24L47.67 7.24Q47.67 7.43 47.66 7.87L47.66 7.87L47.66 7.87Q47.66 8.30 47.66 8.47L47.66 8.47L47.66 8.47Q47.92 7.77 48.52 7.21L48.52 7.21L48.52 7.21Q49.14 6.66 49.75 6.66L49.75 6.66L49.75 6.66Q50.36 6.66 50.71 6.91L50.71 6.91L50.71 6.91Q51.07 7.15 51.07 7.46L51.07 7.46L51.07 7.46Q51.07 7.77 50.92 7.94L50.92 7.94L50.92 7.94Q50.76 8.11 50.52 8.11L50.52 8.11L50.52 8.11Q50.27 8.11 49.98 7.85L49.98 7.85L49.98 7.85Q49.71 7.59 49.53 7.59L49.53 7.59L49.53 7.59Q49.07 7.59 48.45 8.59L48.45 8.59L48.45 8.59Q47.84 9.59 47.67 10.60ZM55.31 7.50L55.31 7.50L55.31 7.50Q54.39 7.50 53.77 8.20L53.77 8.20L53.77 8.20Q53.14 8.89 52.95 9.81L52.95 9.81L52.95 9.81Q53.70 10.04 54.65 10.04L54.65 10.04L54.65 10.04Q55.59 10.04 56.17 9.72L56.17 9.72L56.17 9.72Q56.74 9.39 56.74 8.83L56.74 8.83L56.74 8.83Q56.74 8.27 56.36 7.89L56.36 7.89L56.36 7.89Q55.97 7.50 55.31 7.50ZM54.71 10.92L54.71 10.92L54.71 10.92Q53.98 10.92 52.93 10.71L52.93 10.71L52.93 10.71Q53.02 11.70 53.67 12.40L53.67 12.40L53.67 12.40Q54.32 13.10 55.19 13.10L55.19 13.10L55.19 13.10Q56.06 13.10 56.62 12.68L56.62 12.68L56.62 12.68Q57.18 12.25 57.35 12.25L57.35 12.25L57.35 12.25Q57.53 12.25 57.63 12.36L57.63 12.36L57.63 12.36Q57.74 12.46 57.74 12.61L57.74 12.61L57.74 12.61Q57.74 13.01 56.93 13.51L56.93 13.51L56.93 13.51Q56.13 14.01 55.19 14.01L55.19 14.01L55.19 14.01Q53.73 14.01 52.87 12.98L52.87 12.98L52.87 12.98Q52.01 11.96 51.95 10.53L51.95 10.53L51.95 10.53Q51.21 10.29 51.21 9.80L51.21 9.80L51.21 9.80Q51.21 9.48 51.45 9.38L51.45 9.38L51.45 9.38Q51.53 9.35 51.67 9.35L51.67 9.35L51.67 9.35Q51.80 9.35 52.04 9.48L52.04 9.48L52.04 9.48Q52.36 8.20 53.21 7.40L53.21 7.40L53.21 7.40Q54.05 6.59 55.19 6.59L55.19 6.59L55.19 6.59Q56.34 6.59 57.04 7.22L57.04 7.22L57.04 7.22Q57.74 7.85 57.74 8.87L57.74 8.87L57.74 8.87Q57.74 9.88 56.87 10.40L56.87 10.40L56.87 10.40Q56.00 10.92 54.71 10.92Z"></path></g><!----><!----></svg>